<svg width="60" height="60" viewBox="0 0 60 60" fill="none" xmlns="http://www.w3.org/2000/svg">
<path d="M22.5 35.625C24.2259 35.625 25.625 34.2259 25.625 32.5C25.625 30.7741 24.2259 29.375 22.5 29.375C20.7741 29.375 19.375 30.7741 19.375 32.5C19.375 34.2259 20.7741 35.625 22.5 35.625Z" fill="#2F4157"/>
<path d="M37.5 35.625C39.2259 35.625 40.625 34.2259 40.625 32.5C40.625 30.7741 39.2259 29.375 37.5 29.375C35.7741 29.375 34.375 30.7741 34.375 32.5C34.375 34.2259 35.7741 35.625 37.5 35.625Z" fill="#2F4157"/>
<path d="M57.2747 29.9C55.9747 15.8 44.1497 5 29.9997 5C15.8497 5 4.02467 15.8 2.72467 29.9L0.474667 54.55C0.224667 57.475 2.52467 60 5.47467 60H54.5247C57.4747 60 59.7747 57.475 59.4997 54.55L57.2747 29.9ZM11.3497 22.825C13.5247 24.2 16.0747 25 18.7497 25C23.3997 25 27.4997 22.675 29.9997 19.125C32.4997 22.675 36.5997 25 41.2497 25C43.9247 25 46.4747 24.2 48.6497 22.825C49.4997 25.05 49.9997 27.475 49.9997 30C49.9997 41.025 41.0247 50 29.9997 50C18.9747 50 9.99967 41.025 9.99967 30C9.99967 27.475 10.4997 25.05 11.3497 22.825Z" fill="#5A6962"/>
</svg>
